<mxfile host="app.diagrams.net" agent="Mozilla/5.0 (Macintosh; Intel Mac OS X 10_15_7) AppleWebKit/537.36 (KHTML, like Gecko) Chrome/132.0.0.0 Safari/537.36" version="26.0.11">
  <diagram name="Page-1" id="xPBMSdVnHzfzo3K6CQ3b">
    <mxGraphModel dx="489" dy="315" grid="1" gridSize="10" guides="1" tooltips="1" connect="1" arrows="1" fold="1" page="1" pageScale="1" pageWidth="850" pageHeight="1100" math="0" shadow="0">
      <root>
        <mxCell id="0" />
        <mxCell id="1" parent="0" />
        <mxCell id="sZNoe1zB5RIA7zLU-XTy-3" value="Product&lt;div&gt;- pk&lt;/div&gt;&lt;div&gt;- price&lt;/div&gt;&lt;div&gt;- tax_rate&lt;/div&gt;&lt;div&gt;- prod_categ&lt;/div&gt;" style="text;html=1;align=left;verticalAlign=middle;resizable=0;points=[];autosize=1;strokeColor=none;fillColor=none;" parent="1" vertex="1">
          <mxGeometry x="420" y="263" width="90" height="90" as="geometry" />
        </mxCell>
        <mxCell id="sZNoe1zB5RIA7zLU-XTy-9" value="Quote&lt;div&gt;- pk&lt;/div&gt;&lt;div&gt;- name&lt;/div&gt;&lt;div&gt;- status&lt;/div&gt;&lt;div&gt;(accepted, rejected&lt;/div&gt;&lt;div&gt;created)&lt;/div&gt;" style="text;html=1;align=left;verticalAlign=middle;resizable=0;points=[];autosize=1;strokeColor=none;fillColor=none;" parent="1" vertex="1">
          <mxGeometry x="200" y="258" width="130" height="100" as="geometry" />
        </mxCell>
        <mxCell id="sZNoe1zB5RIA7zLU-XTy-10" value="quote_services&lt;div&gt;- pk&lt;/div&gt;&lt;div&gt;- quote_fk&lt;/div&gt;&lt;div&gt;- product_id&lt;/div&gt;" style="text;html=1;align=left;verticalAlign=middle;resizable=0;points=[];autosize=1;strokeColor=none;fillColor=none;" parent="1" vertex="1">
          <mxGeometry x="300" y="265" width="100" height="70" as="geometry" />
        </mxCell>
        <mxCell id="hbJwf4KeyidlC3wuSpwQ-1" value="Order&lt;div&gt;- pk&lt;/div&gt;&lt;div&gt;- quote_fk&lt;/div&gt;&lt;div&gt;- status&lt;/div&gt;&lt;div&gt;(created, processing)&lt;/div&gt;&lt;div&gt;- creation_date&lt;/div&gt;" style="text;html=1;align=left;verticalAlign=middle;resizable=0;points=[];autosize=1;strokeColor=none;fillColor=none;" vertex="1" parent="1">
          <mxGeometry x="200" y="370" width="140" height="100" as="geometry" />
        </mxCell>
      </root>
    </mxGraphModel>
  </diagram>
</mxfile>
